<svg xmlns="http://www.w3.org/2000/svg" viewBox="0 0 512 512">
  <defs>
    <linearGradient id="bg" x1="0%" y1="0%" x2="100%" y2="100%">
      <stop offset="0%" style="stop-color:#6c5ce7"/>
      <stop offset="100%" style="stop-color:#a29bfe"/>
    </linearGradient>
  </defs>
  <rect width="512" height="512" rx="96" fill="url(#bg)"/>
  <path d="M256 128c-35.3 0-64 19.1-64 42.7s28.7 42.7 64 42.7 64 19.1 64 42.7-28.7 42.6-64 42.6m0-170.7c23.7 0 44.4 8.6 55.5 21.4M256 128v-21.3m0 21.3v170.7m0 0v21.3m0-21.3c-23.7 0-44.4-8.6-55.5-21.3M384 256a128 128 0 11-256 0 128 128 0 01256 0z" stroke="white" stroke-width="24" stroke-linecap="round" stroke-linejoin="round" fill="none"/>
</svg>
